<?xml version="1.0" encoding="utf-8"?>
<svg width="96px" height="96px" viewBox="0 0 96 96" version="1.1" xmlns:xlink="http://www.w3.org/1999/xlink" xmlns="http://www.w3.org/2000/svg">
  <defs>
    <path d="M0 0L96 0L96 96L0 96L0 0Z" id="path_1" />
    <clipPath id="mask_1">
      <use xlink:href="#path_1" />
    </clipPath>
  </defs>
  <g id="svg">
    <path d="M0 0L96 0L96 96L0 96L0 0Z" id="Background" fill="none" fill-rule="evenodd" stroke="none" />
    <g clip-path="url(#mask_1)">
      <path d="M28 4C25.792 4 24 5.792 24 8L24 12L20 12C15.6 12 12 15.6 12 20L12 76C12 80.4 15.6 84 20 84L76 84C80.4 84 84 80.4 84 76L84 20C84 15.6 80.4 12 76 12L72 12L72 8C72 5.792 70.208 4 68 4C65.792 4 64 5.792 64 8L64 12L32 12L32 8C32 5.792 30.208 4 28 4L28 4ZM20 32L76 32L76 72C76 74.208 74.208 76 72 76L24 76C21.792 76 20 74.208 20 72L20 32L20 32Z" id="Shape" fill="#226ACC" fill-rule="evenodd" stroke="none" />
    </g>
  </g>
</svg>