<svg id="Layer_1" data-name="Layer 1" xmlns="http://www.w3.org/2000/svg" viewBox="0 0 20 20"><defs><style>.cls-1{fill:#6cb1ef;}.cls-2{fill:#226acc;}</style></defs><path class="cls-1" d="M9,9.14a1,1,0,0,1-1-1v-2a1,1,0,0,1,2,0v2a1,1,0,0,1-1,1Zm10,0a1,1,0,0,1-1-1v-2a1,1,0,0,1,2,0v2a1,1,0,0,1-1,1Zm0,0" transform="translate(-4 -5.14)"/><path class="cls-2" d="M21,7.14H20v1a1,1,0,0,1-2,0v-1H10v1a1,1,0,0,1-2,0v-1H7a3,3,0,0,0-3,3v2H24v-2a3,3,0,0,0-3-3Zm0,0" transform="translate(-4 -5.14)"/><path class="cls-2" d="M10,16.14a1,1,0,1,1-1-1,1,1,0,0,1,1,1Zm0,0" transform="translate(-4 -5.14)"/><path class="cls-2" d="M10,20.14a1,1,0,1,1-1-1,1,1,0,0,1,1,1Zm0,0" transform="translate(-4 -5.14)"/><path class="cls-2" d="M15,16.14a1,1,0,1,1-1-1,1,1,0,0,1,1,1Zm0,0" transform="translate(-4 -5.14)"/><path class="cls-2" d="M15,20.14a1,1,0,1,1-1-1,1,1,0,0,1,1,1Zm0,0" transform="translate(-4 -5.14)"/><path class="cls-2" d="M20,16.14a1,1,0,1,1-1-1,1,1,0,0,1,1,1Zm0,0" transform="translate(-4 -5.14)"/><path class="cls-2" d="M20,20.14a1,1,0,1,1-1-1,1,1,0,0,1,1,1Zm0,0" transform="translate(-4 -5.14)"/><path class="cls-1" d="M4,12.14v10a3,3,0,0,0,3,3H21a3,3,0,0,0,3-3v-10Zm5,9a1,1,0,1,1,1-1,1,1,0,0,1-1,1Zm0-4a1,1,0,1,1,1-1,1,1,0,0,1-1,1Zm5,4a1,1,0,1,1,1-1,1,1,0,0,1-1,1Zm0-4a1,1,0,1,1,1-1,1,1,0,0,1-1,1Zm5,4a1,1,0,1,1,1-1,1,1,0,0,1-1,1Zm0-4a1,1,0,1,1,1-1,1,1,0,0,1-1,1Zm0,0" transform="translate(-4 -5.14)"/></svg>