<svg id="OBJECTS" xmlns="http://www.w3.org/2000/svg" viewBox="0 0 105.02 65.66"><defs><style>.cls-1{fill:#ca7b44;}.cls-2{fill:#b46f3d;}.cls-3{fill:#e0a57f;}.cls-4{fill:#d68b56;}.cls-5{fill:#89421a;}</style></defs><rect class="cls-1" x="10.93" y="9.74" width="83.17" height="7.17"/><rect class="cls-2" x="10.93" y="9.74" width="83.17" height="3.59"/><rect class="cls-3" y="5.01" width="105.02" height="4.73"/><rect class="cls-4" y="7.38" width="105.02" height="2.37"/><path class="cls-1" d="M16.42,26.08V74.83h0a1.85,1.85,0,0,0,1.84-1.65l5.16-47.1Z" transform="translate(-5.49 -9.17)"/><path class="cls-1" d="M99.58,26.08V74.83h0a1.85,1.85,0,0,1-1.84-1.65l-5.16-47.1Z" transform="translate(-5.49 -9.17)"/><path class="cls-3" d="M37.95,0H67.08a2.61,2.61,0,0,1,2.61,2.61v0a13.6,13.6,0,0,1-13.6,13.6H48.94a13.6,13.6,0,0,1-13.6-13.6v0A2.61,2.61,0,0,1,37.95,0Z"/><path class="cls-3" d="M43.28,40.33l-4.36,34.5h0a2.72,2.72,0,0,0,2.65-2.13L48.08,46H58V40.33Z" transform="translate(-5.49 -9.17)"/><path class="cls-2" d="M72.72,40.33l4.36,34.5h0a2.72,2.72,0,0,1-2.65-2.13L67.92,46H58V40.33Z" transform="translate(-5.49 -9.17)"/><path class="cls-5" d="M73.79,40.33H42.21A1.38,1.38,0,0,1,40.83,39h0a2.21,2.21,0,0,1,2.22-2.22H73A2.21,2.21,0,0,1,75.17,39h0A1.38,1.38,0,0,1,73.79,40.33Z" transform="translate(-5.49 -9.17)"/><path class="cls-2" d="M47.62,19.68,51.05,46h-2l-4-28.77h0A2.68,2.68,0,0,1,47.62,19.68Z" transform="translate(-5.49 -9.17)"/><path class="cls-3" d="M49.07,46H47.43l-3.2-27.68a.92.92,0,0,1,.84-1.09h0Z" transform="translate(-5.49 -9.17)"/><path class="cls-3" d="M68.38,19.68,65,46h2l4-28.77h0A2.68,2.68,0,0,0,68.38,19.68Z" transform="translate(-5.49 -9.17)"/><path class="cls-2" d="M66.93,46h1.64l3.2-27.68a.92.92,0,0,0-.84-1.09h0Z" transform="translate(-5.49 -9.17)"/></svg>