<svg id="Layer_1" data-name="Layer 1" xmlns="http://www.w3.org/2000/svg" viewBox="0 0 120 80"><defs><style>.cls-1{fill:#ca7b44;}.cls-2{fill:#b46f3d;}.cls-3{fill:#e0a57f;}.cls-4{fill:#d68b56;}.cls-5{fill:#89421a;}</style></defs><rect class="cls-1" x="18.42" y="16.91" width="83.17" height="7.17"/><rect class="cls-2" x="18.42" y="16.91" width="83.17" height="3.59"/><rect class="cls-3" x="7.49" y="12.18" width="105.02" height="4.73"/><rect class="cls-4" x="7.49" y="14.55" width="105.02" height="2.37"/><path class="cls-1" d="M18.42,24.08V72.83h0a1.85,1.85,0,0,0,1.84-1.65l5.16-47.1Z"/><path class="cls-1" d="M101.58,24.08V72.83h0a1.85,1.85,0,0,1-1.84-1.65l-5.16-47.1Z"/><path class="cls-3" d="M63.57,23.38H56.43a13.6,13.6,0,0,1-13.6-13.6h0a2.61,2.61,0,0,1,2.61-2.61H74.56a2.61,2.61,0,0,1,2.61,2.61h0A13.6,13.6,0,0,1,63.57,23.38Z"/><path class="cls-3" d="M45.28,38.33l-4.36,34.5h0a2.72,2.72,0,0,0,2.65-2.13L50.08,44H60V38.33Z"/><path class="cls-2" d="M74.72,38.33l4.36,34.5h0a2.72,2.72,0,0,1-2.65-2.13L69.92,44H60V38.33Z"/><path class="cls-5" d="M75.79,38.33H44.21A1.38,1.38,0,0,1,42.83,37h0a2.21,2.21,0,0,1,2.22-2.22H75A2.21,2.21,0,0,1,77.17,37h0A1.38,1.38,0,0,1,75.79,38.33Z"/><path class="cls-2" d="M49.62,17.68,53.05,44h-2l-4-28.77h0A2.68,2.68,0,0,1,49.62,17.68Z"/><path class="cls-3" d="M51.07,44H49.43l-3.2-27.68a.92.92,0,0,1,.84-1.09h0Z"/><path class="cls-3" d="M70.38,17.68,67,44h2l4-28.77h0A2.68,2.68,0,0,0,70.38,17.68Z"/><path class="cls-2" d="M68.93,44h1.64l3.2-27.68a.92.92,0,0,0-.84-1.09h0Z"/></svg>