<svg id="Layer_1" data-name="Layer 1" xmlns="http://www.w3.org/2000/svg" viewBox="0 0 44.09 31.08"><defs><style>.cls-1{fill:#fff;}</style></defs><path class="cls-1" d="M5.75,39a2.82,2.82,0,0,1-2.8-3A3.14,3.14,0,0,1,3.7,34a2.59,2.59,0,0,1,2-.88,2.74,2.74,0,0,1,2.7,3,.35.35,0,0,1-.35.35H3.67a2.12,2.12,0,0,0,2.08,1.92,2,2,0,0,0,1.76-1A.35.35,0,0,1,8,37.23a.36.36,0,0,1,.13.48A2.73,2.73,0,0,1,5.75,39ZM3.67,35.71h4a2,2,0,0,0-2-1.92A2,2,0,0,0,3.67,35.71Z" transform="translate(-2.95 -7.95)"/><path class="cls-1" d="M15.82,39a.34.34,0,0,1-.35-.35V32.77l-2.54,3.77a.38.38,0,0,1-.29.15.35.35,0,0,1-.29-.15L9.82,32.77v5.91a.35.35,0,1,1-.7,0V31.62a.35.35,0,0,1,.25-.34.32.32,0,0,1,.38.15l2.89,4.28,2.88-4.28a.36.36,0,0,1,.4-.15.38.38,0,0,1,.25.34v7.06A.35.35,0,0,1,15.82,39Z" transform="translate(-2.95 -7.95)"/><path class="cls-1" d="M22.44,33.44v5.24a.35.35,0,1,1-.7,0v-.62a2.68,2.68,0,0,1-2.11,1,3,3,0,0,1,0-5.93,2.73,2.73,0,0,1,2.11.95v-.61a.35.35,0,0,1,.7,0Zm-.7,2.62a2.11,2.11,0,1,0-2.11,2.27A2.14,2.14,0,0,0,21.74,36.06Z" transform="translate(-2.95 -7.95)"/><path class="cls-1" d="M25.91,39a3,3,0,0,1,0-5.93,2.69,2.69,0,0,1,2.26,1.16.35.35,0,1,1-.57.41,2,2,0,0,0-1.69-.88,2.28,2.28,0,0,0,0,4.54,2,2,0,0,0,1.69-.87.35.35,0,1,1,.57.39A2.71,2.71,0,0,1,25.91,39Z" transform="translate(-2.95 -7.95)"/><path class="cls-1" d="M33.7,35.62v3.06a.35.35,0,0,1-.36.35.35.35,0,0,1-.35-.35V35.62a1.7,1.7,0,1,0-3.39,0v3.06a.35.35,0,0,1-.35.35.36.36,0,0,1-.36-.35V31.62a.36.36,0,0,1,.36-.35.35.35,0,0,1,.35.35V33.8a2.34,2.34,0,0,1,1.7-.7A2.41,2.41,0,0,1,33.7,35.62Z" transform="translate(-2.95 -7.95)"/><path class="cls-1" d="M34.88,31.79a.38.38,0,1,1-.38.37A.38.38,0,0,1,34.88,31.79Zm0,7.24a.35.35,0,0,1-.35-.35V33.44a.35.35,0,0,1,.35-.34.34.34,0,0,1,.35.34v5.24A.34.34,0,0,1,34.88,39Z" transform="translate(-2.95 -7.95)"/><path class="cls-1" d="M40.88,35.62v3.06a.35.35,0,1,1-.69,0V35.62a1.69,1.69,0,0,0-1.65-1.83,1.78,1.78,0,0,0-1.76,1.83v3.06a.34.34,0,0,1-.35.35.35.35,0,0,1-.34-.35V33.44a.34.34,0,0,1,.34-.34.34.34,0,0,1,.35.34v.39a2.44,2.44,0,0,1,1.76-.73,2.26,2.26,0,0,1,1.72.75A2.71,2.71,0,0,1,40.88,35.62Z" transform="translate(-2.95 -7.95)"/><path class="cls-1" d="M44.4,39a2.82,2.82,0,0,1-2.8-3A3.13,3.13,0,0,1,42.34,34a2.61,2.61,0,0,1,2-.88,2.74,2.74,0,0,1,2.71,3,.35.35,0,0,1-.35.35H42.31a2.12,2.12,0,0,0,2.09,1.92,2,2,0,0,0,1.76-1,.35.35,0,0,1,.48-.11.36.36,0,0,1,.12.48A2.71,2.71,0,0,1,44.4,39Zm-2.09-3.32h4a2,2,0,0,0-2-1.92A2.06,2.06,0,0,0,42.31,35.71Z" transform="translate(-2.95 -7.95)"/><path class="cls-1" d="M31.63,26.62h0S31.64,26.61,31.63,26.62Z" transform="translate(-2.95 -7.95)"/><path class="cls-1" d="M32.39,10.83Z" transform="translate(-2.95 -7.95)"/><path class="cls-1" d="M32.39,10.83l.4-1.07a.77.77,0,0,0-.45-1l-1.57-.57a.75.75,0,0,0-1,.44l-.17.47a.77.77,0,0,1-.81.49,7.59,7.59,0,0,0-1.07-.07h0A.75.75,0,0,1,27,9l-.12-.47A.77.77,0,0,0,26,8l-1.62.43a.76.76,0,0,0-.54.92l.11.41a.75.75,0,0,1-.38.86,9.47,9.47,0,0,0-1.31.85.77.77,0,0,1-.93,0L21,11.19a.76.76,0,0,0-1.06.14l-1,1.32A.76.76,0,0,0,19,13.71l.29.23a.76.76,0,0,1,.23.91,9.46,9.46,0,0,0-.51,1.5.77.77,0,0,1-.74.58h-.37a.74.74,0,0,0-.75.75v1.67a.75.75,0,0,0,.75.76h.37a.77.77,0,0,1,.74.58,8.17,8.17,0,0,0,.46,1.37.76.76,0,0,1-.24.91l-.3.22a.76.76,0,0,0-.15,1.06l1,1.34a.75.75,0,0,0,1.06.15l.33-.24a.77.77,0,0,1,.93,0,6.26,6.26,0,0,0,.66.49.74.74,0,0,1,.29.89l-.14.39a.76.76,0,0,0,.45,1l1.57.58a.75.75,0,0,0,1-.45l.16-.44a.77.77,0,0,1,.79-.49,8.51,8.51,0,0,0,.88,0H28a.76.76,0,0,1,.75.57l.12.46a.75.75,0,0,0,.93.54l1.62-.42a.76.76,0,0,0,.54-.92l-.29-1.1h0l-.58-1.9a.76.76,0,0,0-1-.48,6.15,6.15,0,0,1-7.7-3A.76.76,0,0,1,23,20.11h5a.76.76,0,0,0,.76-.76V17.68a.76.76,0,0,0-.76-.75H23a.76.76,0,0,1-.68-1.1,6.12,6.12,0,0,1,8.3-2.75.76.76,0,0,0,1.06-.41l.67-1.84Z" transform="translate(-2.95 -7.95)"/></svg>