<svg id="Layer_1" data-name="Layer 1" xmlns="http://www.w3.org/2000/svg" viewBox="0 0 30.07 40.57"><defs><style>.cls-1{fill:#fff;}</style></defs><path class="cls-1" d="M37.72,40.54Z" transform="translate(-9.97 -4.71)"/><path class="cls-1" d="M39.18,10.25Z" transform="translate(-9.97 -4.71)"/><path class="cls-1" d="M39.18,10.25,40,8.18a1.45,1.45,0,0,0-.87-1.86l-3-1.11a1.44,1.44,0,0,0-1.86.86L33.88,7a1.46,1.46,0,0,1-1.54.94,15.76,15.76,0,0,0-2.07-.13h0A1.46,1.46,0,0,1,28.85,6.7l-.23-.9a1.46,1.46,0,0,0-1.78-1l-3.1.81a1.46,1.46,0,0,0-1,1.78l.21.78a1.47,1.47,0,0,1-.74,1.66,18,18,0,0,0-2.51,1.63,1.43,1.43,0,0,1-1.77,0l-.63-.48a1.46,1.46,0,0,0-2,.26l-2,2.54a1.45,1.45,0,0,0,.27,2l.56.43A1.47,1.47,0,0,1,14.52,18a16.35,16.35,0,0,0-1,2.86,1.45,1.45,0,0,1-1.41,1.11h-.71A1.45,1.45,0,0,0,10,23.4v3.2a1.45,1.45,0,0,0,1.45,1.45h.71a1.46,1.46,0,0,1,1.41,1.11,16.07,16.07,0,0,0,.89,2.64A1.46,1.46,0,0,1,14,33.54l-.57.43a1.46,1.46,0,0,0-.29,2L15,38.57a1.46,1.46,0,0,0,2,.29l.63-.47a1.46,1.46,0,0,1,1.77,0c.42.33.84.64,1.28.94a1.46,1.46,0,0,1,.57,1.71l-.28.75a1.44,1.44,0,0,0,.86,1.86l3,1.11a1.46,1.46,0,0,0,1.87-.86l.31-.84a1.47,1.47,0,0,1,1.51-1,15.48,15.48,0,0,0,1.68.09h.4a1.45,1.45,0,0,1,1.45,1.08l.24.9a1.45,1.45,0,0,0,1.77,1l3.11-.81a1.46,1.46,0,0,0,1-1.78l-.55-2.11h0l-1.11-3.63A1.46,1.46,0,0,0,34.7,36a11.59,11.59,0,0,1-4.22.78,11.74,11.74,0,0,1-10.56-6.6,1.45,1.45,0,0,1,1.3-2.09h9.56a1.46,1.46,0,0,0,1.45-1.46V23.4a1.46,1.46,0,0,0-1.45-1.46H21.23a1.44,1.44,0,0,1-1.3-2.09,11.75,11.75,0,0,1,15.93-5.29,1.45,1.45,0,0,0,2-.79l1.29-3.52h0Z" transform="translate(-9.97 -4.71)"/></svg>