<svg id="Layer_1" data-name="Layer 1" xmlns="http://www.w3.org/2000/svg" viewBox="0 0 108.44 82.43"><defs><style>.cls-1{font-size:26.56px;font-family:Moon2.0-Regular, "Moon 2.0";}.cls-1,.cls-4{fill:#fff;}.cls-2{letter-spacing:0.01em;}.cls-3{letter-spacing:0.01em;}</style></defs><text class="cls-1" transform="translate(0 75.12)">eMac<tspan class="cls-2" x="62.84" y="0">h</tspan><tspan class="cls-3" x="76.25" y="0">i</tspan><tspan x="80.23" y="0">ne</tspan></text><path class="cls-4" d="M83.52,71.41Z" transform="translate(-13.28 -26.29)"/><path class="cls-4" d="M85.36,33.26s0,0,0,0Z" transform="translate(-13.28 -26.29)"/><path class="cls-4" d="M85.36,33.26l1-2.61a1.83,1.83,0,0,0-1.08-2.35l-3.8-1.39A1.83,1.83,0,0,0,79.09,28l-.41,1.12a1.82,1.82,0,0,1-1.94,1.18,22.31,22.31,0,0,0-2.61-.16h0a1.81,1.81,0,0,1-1.77-1.35l-.29-1.13a1.84,1.84,0,0,0-2.24-1.3l-3.91,1A1.83,1.83,0,0,0,64.6,29.6l.26,1a1.84,1.84,0,0,1-.92,2.09,21.37,21.37,0,0,0-3.16,2,1.83,1.83,0,0,1-2.24,0l-.79-.6a1.82,1.82,0,0,0-2.56.33l-2.47,3.19a1.83,1.83,0,0,0,.33,2.57l.71.55A1.84,1.84,0,0,1,54.3,43a22,22,0,0,0-1.24,3.61A1.83,1.83,0,0,1,51.28,48h-.89a1.82,1.82,0,0,0-1.83,1.83v4a1.83,1.83,0,0,0,1.83,1.83h.9a1.83,1.83,0,0,1,1.77,1.39,22.08,22.08,0,0,0,1.12,3.33,1.83,1.83,0,0,1-.58,2.2l-.72.53a1.85,1.85,0,0,0-.37,2.57l2.43,3.23a1.83,1.83,0,0,0,2.56.37l.79-.6a1.83,1.83,0,0,1,2.24,0,17,17,0,0,0,1.61,1.17,1.85,1.85,0,0,1,.71,2.16l-.35,1a1.84,1.84,0,0,0,1.08,2.35l3.8,1.39a1.83,1.83,0,0,0,2.35-1.08l.39-1.07A1.83,1.83,0,0,1,72,73.43a21,21,0,0,0,2.11.1h.52a1.83,1.83,0,0,1,1.82,1.37l.3,1.13A1.82,1.82,0,0,0,79,77.32l3.91-1a1.84,1.84,0,0,0,1.31-2.23l-.7-2.66h0l-1.4-4.58a1.83,1.83,0,0,0-2.41-1.17A14.81,14.81,0,0,1,61.1,58.32a1.83,1.83,0,0,1,1.64-2.64h12a1.83,1.83,0,0,0,1.83-1.83v-4A1.83,1.83,0,0,0,74.77,48h-12a1.83,1.83,0,0,1-1.64-2.64,14.8,14.8,0,0,1,20.07-6.66,1.83,1.83,0,0,0,2.56-1l1.62-4.43h0Z" transform="translate(-13.28 -26.29)"/></svg>