<svg id="Layer_1" data-name="Layer 1" xmlns="http://www.w3.org/2000/svg" viewBox="0 0 1024 1024"><defs><style>.cls-1{fill:#132548;}</style></defs><path class="cls-1" d="M297.67,501.37a451,451,0,0,0,86.08,25.69,482.7,482.7,0,0,0,93.74,8.9,470.64,470.64,0,0,0,92.74-9.77c27.42-5.68,54.45-14.43,79.27-27.52,25.22-13.28,47.9-31.79,64.3-55.22a145.17,145.17,0,0,0,18-36.31,139.77,139.77,0,0,0,7.27-39.75A117,117,0,0,0,734,328.16,108.38,108.38,0,0,0,713,290.37c-17.29-20.37-42.79-33-68.42-39.25-27.44-6.65-55.58-6.67-83.52-4-32.07,3.07-64.05,8.85-96.38,7.93a184.66,184.66,0,0,1-19.24-1.48l4.65.62a154.37,154.37,0,0,1-38.69-10.41l4.18,1.77a122.09,122.09,0,0,1-26.76-15.39l3.54,2.74a94.78,94.78,0,0,1-16.71-16.54l2.74,3.55A81.89,81.89,0,0,1,367.81,202l1.77,4.18a68.7,68.7,0,0,1-4.72-17.23l.62,4.66a74.18,74.18,0,0,1,.07-19.18l-.63,4.65a77.57,77.57,0,0,1,5.35-19.48l-1.76,4.18a72.5,72.5,0,0,1,9-15.5l-2.74,3.54a64.24,64.24,0,0,1,11.39-11.44l-3.54,2.74a57.12,57.12,0,0,1,12.2-7.13l-4.18,1.77c1.75-.73,3.52-1.36,5.33-1.92a18.28,18.28,0,0,0,10.45-8c2.2-3.75,3.13-9.28,1.77-13.48s-4-8.32-8-10.46-8.94-3.16-13.49-1.77c-27.29,8.36-47.13,32.2-53.93,59.51a92.17,92.17,0,0,0-.64,42.27c3.18,14.44,10.71,27.41,19.94,38.78,8.48,10.45,19.51,19.1,31.11,25.84a155.26,155.26,0,0,0,38.46,15.7c31.31,8.24,63.81,6.5,95.66,3,31.45-3.52,63.12-8.72,94.85-6q4.93.42,9.84,1.08l-4.65-.63a158.73,158.73,0,0,1,40,10.57l-4.18-1.76a112.34,112.34,0,0,1,24.42,14.06L674,301.65a94.28,94.28,0,0,1,16.76,16.64L688,314.75a87.72,87.72,0,0,1,11,18.88l-1.77-4.18a95.82,95.82,0,0,1,6.55,24.17l-.62-4.66a113.13,113.13,0,0,1-.09,29.47l.62-4.65a129.08,129.08,0,0,1-8.85,32.37l1.76-4.18a129.27,129.27,0,0,1-16.59,28.55l2.74-3.54a152.39,152.39,0,0,1-27.22,26.79l3.54-2.73a205,205,0,0,1-45.3,25.89l4.18-1.77c-21.23,8.9-43.57,14.89-66.19,19q-10.7,2-21.49,3.41L535,497a455.7,455.7,0,0,1-94.12,2.68q-13.39-1-26.7-2.79l4.65.63a455.87,455.87,0,0,1-87.76-20.78q-12.18-4.22-24.09-9.12c-3.91-1.6-10-.26-13.49,1.77-3.63,2.12-7.09,6.29-8,10.46-1,4.48-.8,9.51,1.76,13.48l2.74,3.54a17.46,17.46,0,0,0,7.72,4.5Z"/><path class="cls-1" d="M231.26,831.27a87.23,87.23,0,0,1-22.74-2.87,82.82,82.82,0,0,1-19.41-7.79,84.57,84.57,0,0,1-15.43-11,59.35,59.35,0,0,1-10.5-12.08,31.47,31.47,0,0,1-4.45-8.43,9.22,9.22,0,0,1,.48-6.53q1.42-3.17,5.88-7,5.08-3.81,8.91-3.65a11.63,11.63,0,0,1,7.16,3,46,46,0,0,1,6.84,7.63,46.74,46.74,0,0,0,19.4,15.75A56.77,56.77,0,0,0,230,803.27a78.21,78.21,0,0,0,25.45-3.82q11.13-3.81,17.65-11.61t6.53-20.2q0-10.17-5.09-17.18a43.37,43.37,0,0,0-13.68-11.93,113.63,113.63,0,0,0-19.09-8.59q-10.5-3.65-21.31-7.15-8.59-2.87-16.87-6.53A118.78,118.78,0,0,1,188,708a58.21,58.21,0,0,1-12.89-11,45.39,45.39,0,0,1-8.59-14.95,60.28,60.28,0,0,1-3-20.05q0-17.49,8.43-30.85a56.78,56.78,0,0,1,23.7-20.84q15.27-7.47,35.31-7.48a98.61,98.61,0,0,1,21.64,2.23A82.8,82.8,0,0,1,270.07,611a82,82,0,0,1,13.05,7.63,46,46,0,0,1,8.27,7.48q5.72,6,6.36,10.18T293,646.44q-5.1,5.71-9.86,6c-3.19.21-6.68-1.27-10.5-4.45a50.71,50.71,0,0,0-12.57-10.82A44.33,44.33,0,0,0,246.37,632a80.77,80.77,0,0,0-15.75-1.43,55.27,55.27,0,0,0-15.42,2.07,36,36,0,0,0-12.41,6.2,28.55,28.55,0,0,0-8.11,10,30.54,30.54,0,0,0-2.87,13.52A23.4,23.4,0,0,0,196.43,677a39.44,39.44,0,0,0,12.24,10.34A108,108,0,0,0,225.85,695q9.56,3.34,20.05,6.52a203.14,203.14,0,0,1,22.58,8.43,90.23,90.23,0,0,1,20,12.09,53.36,53.36,0,0,1,14.32,18q5.4,10.83,5.41,26.73t-6.21,28a57.83,57.83,0,0,1-17,20.2,77.57,77.57,0,0,1-24.65,12.25A101.41,101.41,0,0,1,231.26,831.27Z"/><path class="cls-1" d="M355.64,828.09c-4.24,0-7.37-.59-9.38-1.75a8.35,8.35,0,0,1-4-5.09,28.81,28.81,0,0,1-.95-7.8V620.35a23.33,23.33,0,0,1,1.11-7.64,9,9,0,0,1,4.14-4.93c2-1.16,5.14-1.75,9.38-1.75s7.37.59,9.39,1.75a7.74,7.74,0,0,1,3.81,4.93,33.57,33.57,0,0,1,.8,8v193.1a26.67,26.67,0,0,1-1,7.64,8.31,8.31,0,0,1-4,4.93C363,827.5,359.88,828.09,355.64,828.09Z"/><path class="cls-1" d="M426,828.09c-4.25,0-7.43-.59-9.55-1.75a8.86,8.86,0,0,1-4.29-4.93,23,23,0,0,1-1.11-7.64V620.67a28.1,28.1,0,0,1,.95-8,8.35,8.35,0,0,1,4-4.93c2-1.16,5.14-1.75,9.38-1.75s7.37.59,9.39,1.75a8.33,8.33,0,0,1,4,4.93,26.71,26.71,0,0,1,1,7.64v181H546.2a22.24,22.24,0,0,1,7,1,8.49,8.49,0,0,1,4.61,3.81c1.16,1.91,1.75,4.78,1.75,8.59a18.32,18.32,0,0,1-1.59,8.43,7.73,7.73,0,0,1-4.45,4,22.24,22.24,0,0,1-7,1Z"/><path class="cls-1" d="M696.67,607q6.68,4.77,7.48,8.91t-3.34,9.86L626.05,739.33v74.76a27,27,0,0,1-1,7.47,8.28,8.28,0,0,1-4,5.09q-3,1.76-9.39,1.75t-9.38-1.75a8.92,8.92,0,0,1-4.14-5.24,26.35,26.35,0,0,1-1.11-8V739L522,626.39q-3.81-5.71-2.86-10t7.63-9.06a26.82,26.82,0,0,1,8.11-4,7.94,7.94,0,0,1,6.21,1,16.79,16.79,0,0,1,5.41,6.2l64.89,101.8,65.22-101.8c1.91-3,3.76-5,5.57-6a9.36,9.36,0,0,1,6.2-1.11A20.86,20.86,0,0,1,696.67,607Z"/><path class="cls-1" d="M872.27,807.73a20.12,20.12,0,0,1,2.71,8.11,8.64,8.64,0,0,1-2.07,6,19.68,19.68,0,0,1-7,4.93c-5.09,2.33-9.07,2.87-11.93,1.59s-5.46-4.34-7.79-9.22L766.65,649.94,687.76,818.86c-2.34,4.88-4.93,7.95-7.8,9.23s-6.94.74-12.24-1.59a15.09,15.09,0,0,1-6.84-4.78,9.63,9.63,0,0,1-1.59-7,31.53,31.53,0,0,1,3-9.54l91.3-190.56a15.66,15.66,0,0,1,5.57-6.2A14,14,0,0,1,767,606a15.21,15.21,0,0,1,5.41,1,12.24,12.24,0,0,1,4.45,2.86,14.84,14.84,0,0,1,3.19,5.09Zm-165.42-43,10.81-24.5h98.62l10.5,24.5Z"/></svg>